# xmcd CD database file
#
# Track frame offsets:
#	150
#	27277
#	59265
#	83260
#	114335
#	141355
#	168941
#	192579
#	226052
#	248740
#	269453
#	295673
#
# Disc length: 4242 seconds
#
# Revision: 0
# Processed by: cddbd v1.4PL0 Copyright (c) Steve Scherf et al.
# Submitted via: CDex 1.50
#
DISCID=9b10900c
DTITLE=Diana Krall - Live In Paris
DYEAR=2002
DGENRE=Jazz
TTITLE0=I Love Being Here With You
TTITLE1=Let's Fall In Love
TTITLE2=Deed I Do
TTITLE3=The Look Of Love
TTITLE4=East Of The Sun (And West Of The Moon)
TTITLE5=I've Got You Under My Skin
TTITLE6=Devil May Care
TTITLE7=Maybe You'll Be There
TTITLE8='S Wonderful
TTITLE9=Fly Me To The Moon
TTITLE10=A Case Of You
TTITLE11=Just The Way You Are
EXTD=YEAR: 2002
EXTT0=
EXTT1=
EXTT2=
EXTT3=
EXTT4=
EXTT5=
EXTT6=
EXTT7=
EXTT8=
EXTT9=
EXTT10=
EXTT11=
PLAYORDER=
